<svg id="visual" viewBox="0 0 900 600" width="900" height="600" xmlns="http://www.w3.org/2000/svg" xmlns:xlink="http://www.w3.org/1999/xlink" version="1.1"><g stroke-width="1" stroke-linejoin="bevel"><path d="M444 274.1L478 276.1L469 267.1Z" fill="#0a0a25" stroke="#0a0a25"></path><path d="M478 276.1L477 273L469 267.1Z" fill="#0a0a25" stroke="#0a0a25"></path><path d="M444 274.1L463 324L478 276.1Z" fill="#2e0f59" stroke="#2e0f59"></path><path d="M444 274.1L453 328.9L463 324Z" fill="#20124d" stroke="#20124d"></path><path d="M417 187.3L404 279L444 274.1Z" fill="#020317" stroke="#020317"></path><path d="M444 274.1L404 279L453 328.9Z" fill="#2e0f59" stroke="#2e0f59"></path><path d="M453 328.9L464 351.9L463 324Z" fill="#2e0f59" stroke="#2e0f59"></path><path d="M463 324L541 278.1L478 276.1Z" fill="#271153" stroke="#271153"></path><path d="M381 346.7L464 351.9L453 328.9Z" fill="#111139" stroke="#111139"></path><path d="M560 337L541 278.1L463 324Z" fill="#0a0a25" stroke="#0a0a25"></path><path d="M478 276.1L541 278.1L477 273Z" fill="#151240" stroke="#151240"></path><path d="M477 273L525 230.3L469 267.1Z" fill="#0d0d2b" stroke="#0d0d2b"></path><path d="M464 351.9L485 362.7L463 324Z" fill="#07061e" stroke="#07061e"></path><path d="M541 278.1L525 230.3L477 273Z" fill="#151240" stroke="#151240"></path><path d="M469 267.1L480 199.4L444 274.1Z" fill="#0d0d2b" stroke="#0d0d2b"></path><path d="M525 230.3L480 199.4L469 267.1Z" fill="#151240" stroke="#151240"></path><path d="M404 279L381 346.7L453 328.9Z" fill="#0a0a25" stroke="#0a0a25"></path><path d="M464 351.9L449 391.7L485 362.7Z" fill="#0a0a25" stroke="#0a0a25"></path><path d="M371 200.4L363 257.1L404 279Z" fill="#20124d" stroke="#20124d"></path><path d="M404 279L335 320L381 346.7Z" fill="#0e0f32" stroke="#0e0f32"></path><path d="M339 332L379 349.9L381 346.7Z" fill="#151240" stroke="#151240"></path><path d="M381 346.7L449 391.7L464 351.9Z" fill="#1a1246" stroke="#1a1246"></path><path d="M480 199.4L417 187.3L444 274.1Z" fill="#07061e" stroke="#07061e"></path><path d="M384 393.7L449 391.7L381 346.7Z" fill="#0a0a25" stroke="#0a0a25"></path><path d="M449 391.7L515 381.7L485 362.7Z" fill="#151240" stroke="#151240"></path><path d="M485 362.7L560 337L463 324Z" fill="#20124d" stroke="#20124d"></path><path d="M515 381.7L560 337L485 362.7Z" fill="#151240" stroke="#151240"></path><path d="M371 200.4L352 241.3L363 257.1Z" fill="#0a0a25" stroke="#0a0a25"></path><path d="M332 311.9L335 320L404 279Z" fill="#0a0a25" stroke="#0a0a25"></path><path d="M417 187.3L371 200.4L404 279Z" fill="#271153" stroke="#271153"></path><path d="M385 189.3L371 200.4L417 187.3Z" fill="#1a1246" stroke="#1a1246"></path><path d="M515 381.7L559 364.7L560 337Z" fill="#271153" stroke="#271153"></path><path d="M577 204.4L528 175.3L525 230.3Z" fill="#1a1246" stroke="#1a1246"></path><path d="M525 230.3L528 175.3L480 199.4Z" fill="#07061e" stroke="#07061e"></path><path d="M429 134.4L414 138.6L417 187.3Z" fill="#20124d" stroke="#20124d"></path><path d="M417 187.3L414 138.6L385 189.3Z" fill="#1a1246" stroke="#1a1246"></path><path d="M577 204.4L525 230.3L541 278.1Z" fill="#2e0f59" stroke="#2e0f59"></path><path d="M335 194.3L333 262.1L352 241.3Z" fill="#0e0f32" stroke="#0e0f32"></path><path d="M352 241.3L333 262.1L363 257.1Z" fill="#0e0f32" stroke="#0e0f32"></path><path d="M332 311.9L404 279L363 257.1Z" fill="#20124d" stroke="#20124d"></path><path d="M335 320L339 332L381 346.7Z" fill="#0e0f32" stroke="#0e0f32"></path><path d="M379 349.9L384 393.7L381 346.7Z" fill="#0d0d2b" stroke="#0d0d2b"></path><path d="M333 262.1L332 311.9L363 257.1Z" fill="#0e0f32" stroke="#0e0f32"></path><path d="M335 320L314 366.7L339 332Z" fill="#0a0a25" stroke="#0a0a25"></path><path d="M314 366.7L384 393.7L379 349.9Z" fill="#07061e" stroke="#07061e"></path><path d="M589 357.9L597 289L560 337Z" fill="#020317" stroke="#020317"></path><path d="M560 337L597 289L541 278.1Z" fill="#0e0f32" stroke="#0e0f32"></path><path d="M384 393.7L433 419.6L449 391.7Z" fill="#0d0d2b" stroke="#0d0d2b"></path><path d="M449 391.7L462 467.6L515 381.7Z" fill="#20124d" stroke="#20124d"></path><path d="M515 381.7L567 374.9L559 364.7Z" fill="#0e0f32" stroke="#0e0f32"></path><path d="M576 400.6L567 374.9L515 381.7Z" fill="#271153" stroke="#271153"></path><path d="M559 364.7L589 357.9L560 337Z" fill="#0d0d2b" stroke="#0d0d2b"></path><path d="M528 175.3L502 151.4L480 199.4Z" fill="#271153" stroke="#271153"></path><path d="M608 254.1L577 204.4L541 278.1Z" fill="#271153" stroke="#271153"></path><path d="M528 175.3L528 139.6L502 151.4Z" fill="#0e0f32" stroke="#0e0f32"></path><path d="M567 374.9L589 357.9L559 364.7Z" fill="#1a1246" stroke="#1a1246"></path><path d="M648 295L608 254.1L597 289Z" fill="#20124d" stroke="#20124d"></path><path d="M597 289L608 254.1L541 278.1Z" fill="#020317" stroke="#020317"></path><path d="M595 179.3L563 173.4L577 204.4Z" fill="#0e0f32" stroke="#0e0f32"></path><path d="M577 204.4L563 173.4L528 175.3Z" fill="#271153" stroke="#271153"></path><path d="M429 134.4L417 187.3L480 199.4Z" fill="#0a0a25" stroke="#0a0a25"></path><path d="M385 189.3L335 194.3L371 200.4Z" fill="#07061e" stroke="#07061e"></path><path d="M502 151.4L429 134.4L480 199.4Z" fill="#111139" stroke="#111139"></path><path d="M311 139.4L335 194.3L316 128.6Z" fill="#20124d" stroke="#20124d"></path><path d="M371 200.4L335 194.3L352 241.3Z" fill="#1a1246" stroke="#1a1246"></path><path d="M563 173.4L528 139.6L528 175.3Z" fill="#20124d" stroke="#20124d"></path><path d="M502 151.4L487 116.7L429 134.4Z" fill="#0d0d2b" stroke="#0d0d2b"></path><path d="M544 452.6L576 400.6L515 381.7Z" fill="#151240" stroke="#151240"></path><path d="M567 374.9L576 400.6L589 357.9Z" fill="#020317" stroke="#020317"></path><path d="M286 363.7L314 366.7L335 320Z" fill="#111139" stroke="#111139"></path><path d="M339 332L314 366.7L379 349.9Z" fill="#271153" stroke="#271153"></path><path d="M384 393.7L381 433.4L433 419.6Z" fill="#020317" stroke="#020317"></path><path d="M303 370.9L314 366.7L286 363.7Z" fill="#0a0a25" stroke="#0a0a25"></path><path d="M335 320L265 322.9L286 363.7Z" fill="#0a0a25" stroke="#0a0a25"></path><path d="M349 419.6L381 433.4L384 393.7Z" fill="#111139" stroke="#111139"></path><path d="M433 419.6L462 467.6L449 391.7Z" fill="#1a1246" stroke="#1a1246"></path><path d="M528 139.6L487 116.7L502 151.4Z" fill="#020317" stroke="#020317"></path><path d="M429 134.4L400 99.7L414 138.6Z" fill="#1a1246" stroke="#1a1246"></path><path d="M619 203.3L595 179.3L577 204.4Z" fill="#0e0f32" stroke="#0e0f32"></path><path d="M549 109.7L546 108.6L528 139.6Z" fill="#020317" stroke="#020317"></path><path d="M314 366.7L349 419.6L384 393.7Z" fill="#0e0f32" stroke="#0e0f32"></path><path d="M487 116.7L457 109.7L429 134.4Z" fill="#271153" stroke="#271153"></path><path d="M456 492.4L422 455.6L425 505.4Z" fill="#111139" stroke="#111139"></path><path d="M381 433.4L422 455.6L433 419.6Z" fill="#271153" stroke="#271153"></path><path d="M608 254.1L619 203.3L577 204.4Z" fill="#020317" stroke="#020317"></path><path d="M653 263.1L619 203.3L608 254.1Z" fill="#0a0a25" stroke="#0a0a25"></path><path d="M272 287L332 311.9L333 262.1Z" fill="#1a1246" stroke="#1a1246"></path><path d="M314 366.7L303 370.9L349 419.6Z" fill="#0e0f32" stroke="#0e0f32"></path><path d="M422 455.6L462 467.6L433 419.6Z" fill="#0e0f32" stroke="#0e0f32"></path><path d="M462 467.6L544 452.6L515 381.7Z" fill="#0e0f32" stroke="#0e0f32"></path><path d="M659 351.7L648 295L589 357.9Z" fill="#111139" stroke="#111139"></path><path d="M589 357.9L648 295L597 289Z" fill="#07061e" stroke="#07061e"></path><path d="M663 285L648 295L697 342.9Z" fill="#0a0a25" stroke="#0a0a25"></path><path d="M262 278.1L272 287L333 262.1Z" fill="#151240" stroke="#151240"></path><path d="M265 322.9L335 320L332 311.9Z" fill="#20124d" stroke="#20124d"></path><path d="M280 440.4L349 466.6L349 419.6Z" fill="#0e0f32" stroke="#0e0f32"></path><path d="M648 295L653 263.1L608 254.1Z" fill="#020317" stroke="#020317"></path><path d="M487 116.7L457 90.6L457 109.7Z" fill="#151240" stroke="#151240"></path><path d="M457 109.7L400 99.7L429 134.4Z" fill="#151240" stroke="#151240"></path><path d="M414 138.6L369 101.6L385 189.3Z" fill="#271153" stroke="#271153"></path><path d="M539 81.9L457 90.6L487 116.7Z" fill="#111139" stroke="#111139"></path><path d="M546 108.6L487 116.7L528 139.6Z" fill="#111139" stroke="#111139"></path><path d="M457 90.6L400 99.7L457 109.7Z" fill="#1a1246" stroke="#1a1246"></path><path d="M549 109.7L563 173.4L619 153.6Z" fill="#0e0f32" stroke="#0e0f32"></path><path d="M549 109.7L528 139.6L563 173.4Z" fill="#0e0f32" stroke="#0e0f32"></path><path d="M619 153.6L563 173.4L595 179.3Z" fill="#0a0a25" stroke="#0a0a25"></path><path d="M300 153.6L283 200.3L335 194.3Z" fill="#151240" stroke="#151240"></path><path d="M335 194.3L283 200.3L333 262.1Z" fill="#020317" stroke="#020317"></path><path d="M283 200.3L262 278.1L333 262.1Z" fill="#271153" stroke="#271153"></path><path d="M272 287L265 322.9L332 311.9Z" fill="#151240" stroke="#151240"></path><path d="M262 278.1L265 322.9L272 287Z" fill="#07061e" stroke="#07061e"></path><path d="M659 351.7L653 376.7L660 358.9Z" fill="#0a0a25" stroke="#0a0a25"></path><path d="M648 295L663 285L653 263.1Z" fill="#07061e" stroke="#07061e"></path><path d="M398 66.9L369 101.6L400 99.7Z" fill="#2e0f59" stroke="#2e0f59"></path><path d="M400 99.7L369 101.6L414 138.6Z" fill="#111139" stroke="#111139"></path><path d="M619 203.3L619 153.6L595 179.3Z" fill="#020317" stroke="#020317"></path><path d="M634 131.4L619 153.6L666 163.6Z" fill="#1a1246" stroke="#1a1246"></path><path d="M668 252.1L619 203.3L653 263.1Z" fill="#07061e" stroke="#07061e"></path><path d="M456 492.4L486 489.3L462 467.6Z" fill="#020317" stroke="#020317"></path><path d="M462 467.6L486 489.3L544 452.6Z" fill="#1a1246" stroke="#1a1246"></path><path d="M456 492.4L462 467.6L422 455.6Z" fill="#1a1246" stroke="#1a1246"></path><path d="M311 139.4L300 153.6L335 194.3Z" fill="#111139" stroke="#111139"></path><path d="M368 476.4L422 455.6L381 433.4Z" fill="#0d0d2b" stroke="#0d0d2b"></path><path d="M316 128.6L335 194.3L385 189.3Z" fill="#0a0a25" stroke="#0a0a25"></path><path d="M659 351.7L589 357.9L653 376.7Z" fill="#2e0f59" stroke="#2e0f59"></path><path d="M680 269.1L653 263.1L663 285Z" fill="#2e0f59" stroke="#2e0f59"></path><path d="M680 269.1L668 252.1L653 263.1Z" fill="#20124d" stroke="#20124d"></path><path d="M486 489.3L502 492.4L544 452.6Z" fill="#07061e" stroke="#07061e"></path><path d="M653 376.7L589 357.9L576 400.6Z" fill="#0e0f32" stroke="#0e0f32"></path><path d="M531 541.1L502 492.4L501 561.1Z" fill="#1a1246" stroke="#1a1246"></path><path d="M502 492.4L525 487.3L544 452.6Z" fill="#2e0f59" stroke="#2e0f59"></path><path d="M369 101.6L316 128.6L385 189.3Z" fill="#1a1246" stroke="#1a1246"></path><path d="M311 139.4L256 143.6L300 153.6Z" fill="#111139" stroke="#111139"></path><path d="M349 466.6L381 433.4L349 419.6Z" fill="#20124d" stroke="#20124d"></path><path d="M349 466.6L368 476.4L381 433.4Z" fill="#271153" stroke="#271153"></path><path d="M653 376.7L576 400.6L663 391.6Z" fill="#0e0f32" stroke="#0e0f32"></path><path d="M710 302L680 269.1L663 285Z" fill="#020317" stroke="#020317"></path><path d="M280 440.4L349 419.6L303 370.9Z" fill="#1a1246" stroke="#1a1246"></path><path d="M605 476.3L576 400.6L544 452.6Z" fill="#1a1246" stroke="#1a1246"></path><path d="M549 109.7L539 81.9L546 108.6Z" fill="#0a0a25" stroke="#0a0a25"></path><path d="M546 108.6L539 81.9L487 116.7Z" fill="#271153" stroke="#271153"></path><path d="M589 65.9L539 81.9L549 109.7Z" fill="#07061e" stroke="#07061e"></path><path d="M679 352.9L648 295L659 351.7Z" fill="#151240" stroke="#151240"></path><path d="M666 163.6L619 153.6L619 203.3Z" fill="#0e0f32" stroke="#0e0f32"></path><path d="M300 153.6L259 195.4L283 200.3Z" fill="#07061e" stroke="#07061e"></path><path d="M283 200.3L259 195.4L262 278.1Z" fill="#0d0d2b" stroke="#0d0d2b"></path><path d="M256 143.6L259 195.4L300 153.6Z" fill="#0a0a25" stroke="#0a0a25"></path><path d="M368 476.4L425 505.4L422 455.6Z" fill="#0d0d2b" stroke="#0d0d2b"></path><path d="M456 492.4L501 561.1L486 489.3Z" fill="#0e0f32" stroke="#0e0f32"></path><path d="M531 541.1L563 486.4L525 487.3Z" fill="#0a0a25" stroke="#0a0a25"></path><path d="M525 487.3L563 486.4L544 452.6Z" fill="#2e0f59" stroke="#2e0f59"></path><path d="M531 541.1L525 487.3L502 492.4Z" fill="#020317" stroke="#020317"></path><path d="M457 90.6L398 66.9L400 99.7Z" fill="#20124d" stroke="#20124d"></path><path d="M369 101.6L337 86.7L316 128.6Z" fill="#20124d" stroke="#20124d"></path><path d="M461 46.9L398 66.9L457 90.6Z" fill="#20124d" stroke="#20124d"></path><path d="M663 391.6L679 352.9L660 358.9Z" fill="#271153" stroke="#271153"></path><path d="M660 358.9L679 352.9L659 351.7Z" fill="#0e0f32" stroke="#0e0f32"></path><path d="M663 391.6L660 358.9L653 376.7Z" fill="#20124d" stroke="#20124d"></path><path d="M639 474.3L663 391.6L576 400.6Z" fill="#0d0d2b" stroke="#0d0d2b"></path><path d="M686 230.3L619 203.3L668 252.1Z" fill="#07061e" stroke="#07061e"></path><path d="M619 153.6L634 131.4L549 109.7Z" fill="#111139" stroke="#111139"></path><path d="M734 253.3L686 230.3L680 269.1Z" fill="#1a1246" stroke="#1a1246"></path><path d="M680 269.1L686 230.3L668 252.1Z" fill="#20124d" stroke="#20124d"></path><path d="M398 66.9L337 86.7L369 101.6Z" fill="#111139" stroke="#111139"></path><path d="M316 128.6L256 143.6L311 139.4Z" fill="#271153" stroke="#271153"></path><path d="M539 81.9L461 46.9L457 90.6Z" fill="#151240" stroke="#151240"></path><path d="M255 423.6L280 440.4L303 370.9Z" fill="#111139" stroke="#111139"></path><path d="M349 466.6L326 485.3L368 476.4Z" fill="#0a0a25" stroke="#0a0a25"></path><path d="M400 530.3L424 525.1L425 505.4Z" fill="#0a0a25" stroke="#0a0a25"></path><path d="M255 423.6L303 370.9L286 363.7Z" fill="#020317" stroke="#020317"></path><path d="M681 173.4L666 163.6L619 203.3Z" fill="#0e0f32" stroke="#0e0f32"></path><path d="M563 486.4L605 476.3L544 452.6Z" fill="#0e0f32" stroke="#0e0f32"></path><path d="M280 440.4L326 485.3L349 466.6Z" fill="#2e0f59" stroke="#2e0f59"></path><path d="M262 278.1L224 336L265 322.9Z" fill="#2e0f59" stroke="#2e0f59"></path><path d="M265 322.9L224 336L286 363.7Z" fill="#0d0d2b" stroke="#0d0d2b"></path><path d="M199 324L224 336L192 312.9Z" fill="#2e0f59" stroke="#2e0f59"></path><path d="M400 530.3L425 505.4L368 476.4Z" fill="#151240" stroke="#151240"></path><path d="M425 505.4L432 530.3L456 492.4Z" fill="#0e0f32" stroke="#0e0f32"></path><path d="M619 542.3L639 474.3L605 476.3Z" fill="#111139" stroke="#111139"></path><path d="M725 398.6L697 342.9L679 352.9Z" fill="#1a1246" stroke="#1a1246"></path><path d="M679 352.9L697 342.9L648 295Z" fill="#0e0f32" stroke="#0e0f32"></path><path d="M734 344.9L697 342.9L725 398.6Z" fill="#20124d" stroke="#20124d"></path><path d="M686 230.3L681 173.4L619 203.3Z" fill="#0d0d2b" stroke="#0d0d2b"></path><path d="M666 163.6L677 141.6L634 131.4Z" fill="#111139" stroke="#111139"></path><path d="M711 151.6L681 173.4L739 197.4Z" fill="#0a0a25" stroke="#0a0a25"></path><path d="M430 562.1L432 530.3L424 525.1Z" fill="#0e0f32" stroke="#0e0f32"></path><path d="M424 525.1L432 530.3L425 505.4Z" fill="#111139" stroke="#111139"></path><path d="M233 388.6L255 423.6L286 363.7Z" fill="#111139" stroke="#111139"></path><path d="M280 440.4L303 509.4L326 485.3Z" fill="#111139" stroke="#111139"></path><path d="M260 70.7L256 143.6L316 128.6Z" fill="#20124d" stroke="#20124d"></path><path d="M259 195.4L208 242.1L262 278.1Z" fill="#07061e" stroke="#07061e"></path><path d="M224 336L233 388.6L286 363.7Z" fill="#0a0a25" stroke="#0a0a25"></path><path d="M697 342.9L710 302L663 285Z" fill="#0d0d2b" stroke="#0d0d2b"></path><path d="M392 533.1L400 530.3L368 476.4Z" fill="#0e0f32" stroke="#0e0f32"></path><path d="M658 84.7L589 65.9L634 131.4Z" fill="#20124d" stroke="#20124d"></path><path d="M634 131.4L589 65.9L549 109.7Z" fill="#2e0f59" stroke="#2e0f59"></path><path d="M539 81.9L478 0L461 46.9Z" fill="#271153" stroke="#271153"></path><path d="M197 201.4L208 242.1L259 195.4Z" fill="#111139" stroke="#111139"></path><path d="M326 485.3L392 533.1L368 476.4Z" fill="#020317" stroke="#020317"></path><path d="M400 530.3L430 562.1L424 525.1Z" fill="#111139" stroke="#111139"></path><path d="M597 0L582 55.7L617 0Z" fill="#111139" stroke="#111139"></path><path d="M589 65.9L582 55.7L539 81.9Z" fill="#2e0f59" stroke="#2e0f59"></path><path d="M711 151.6L677 141.6L681 173.4Z" fill="#151240" stroke="#151240"></path><path d="M681 173.4L677 141.6L666 163.6Z" fill="#271153" stroke="#271153"></path><path d="M619 542.3L605 476.3L563 486.4Z" fill="#20124d" stroke="#20124d"></path><path d="M605 476.3L639 474.3L576 400.6Z" fill="#0a0a25" stroke="#0a0a25"></path><path d="M192 312.9L224 336L262 278.1Z" fill="#020317" stroke="#020317"></path><path d="M224 336L187 349.7L233 388.6Z" fill="#151240" stroke="#151240"></path><path d="M478 0L434 20.9L461 46.9Z" fill="#07061e" stroke="#07061e"></path><path d="M461 46.9L434 20.9L398 66.9Z" fill="#0e0f32" stroke="#0e0f32"></path><path d="M398 66.9L332 50.9L337 86.7Z" fill="#0a0a25" stroke="#0a0a25"></path><path d="M501 561.1L456 492.4L432 530.3Z" fill="#111139" stroke="#111139"></path><path d="M501 561.1L502 492.4L486 489.3Z" fill="#1a1246" stroke="#1a1246"></path><path d="M352 0L332 50.9L398 66.9Z" fill="#07061e" stroke="#07061e"></path><path d="M337 86.7L284 65.7L316 128.6Z" fill="#111139" stroke="#111139"></path><path d="M639 474.3L667 456.4L663 391.6Z" fill="#111139" stroke="#111139"></path><path d="M770 275L734 253.3L710 302Z" fill="#151240" stroke="#151240"></path><path d="M208 242.1L192 312.9L262 278.1Z" fill="#0d0d2b" stroke="#0d0d2b"></path><path d="M187 349.7L211 410.7L233 388.6Z" fill="#020317" stroke="#020317"></path><path d="M238 507.4L303 509.4L280 440.4Z" fill="#151240" stroke="#151240"></path><path d="M326 485.3L303 544.3L392 533.1Z" fill="#07061e" stroke="#07061e"></path><path d="M238 507.4L280 440.4L255 423.6Z" fill="#0a0a25" stroke="#0a0a25"></path><path d="M734 344.9L710 302L697 342.9Z" fill="#20124d" stroke="#20124d"></path><path d="M710 302L734 253.3L680 269.1Z" fill="#111139" stroke="#111139"></path><path d="M206 132.4L197 201.4L256 143.6Z" fill="#0e0f32" stroke="#0e0f32"></path><path d="M256 143.6L197 201.4L259 195.4Z" fill="#1a1246" stroke="#1a1246"></path><path d="M208 242.1L173 312L192 312.9Z" fill="#2e0f59" stroke="#2e0f59"></path><path d="M188 226.3L188 234.1L208 242.1Z" fill="#0d0d2b" stroke="#0d0d2b"></path><path d="M711 451.6L686 446.4L697 493.4Z" fill="#0a0a25" stroke="#0a0a25"></path><path d="M667 456.4L686 446.4L663 391.6Z" fill="#2e0f59" stroke="#2e0f59"></path><path d="M686 446.4L667 456.4L697 493.4Z" fill="#07061e" stroke="#07061e"></path><path d="M197 201.4L188 226.3L208 242.1Z" fill="#0e0f32" stroke="#0e0f32"></path><path d="M326 0L313 47.9L332 50.9Z" fill="#271153" stroke="#271153"></path><path d="M332 50.9L313 47.9L337 86.7Z" fill="#20124d" stroke="#20124d"></path><path d="M425 600L430 562.1L384 600Z" fill="#111139" stroke="#111139"></path><path d="M392 533.1L430 562.1L400 530.3Z" fill="#111139" stroke="#111139"></path><path d="M430 562.1L501 561.1L432 530.3Z" fill="#271153" stroke="#271153"></path><path d="M697 493.4L667 456.4L639 474.3Z" fill="#271153" stroke="#271153"></path><path d="M187 349.7L224 336L199 324Z" fill="#2e0f59" stroke="#2e0f59"></path><path d="M233 388.6L211 410.7L255 423.6Z" fill="#271153" stroke="#271153"></path><path d="M725 398.6L679 352.9L663 391.6Z" fill="#0e0f32" stroke="#0e0f32"></path><path d="M173 312L199 324L192 312.9Z" fill="#1a1246" stroke="#1a1246"></path><path d="M173 312L187 349.7L199 324Z" fill="#020317" stroke="#020317"></path><path d="M173 312L208 242.1L188 234.1Z" fill="#271153" stroke="#271153"></path><path d="M677 141.6L658 84.7L634 131.4Z" fill="#020317" stroke="#020317"></path><path d="M670 66.7L658 84.7L729 69.7Z" fill="#020317" stroke="#020317"></path><path d="M313 47.9L284 65.7L337 86.7Z" fill="#0e0f32" stroke="#0e0f32"></path><path d="M739 197.4L681 173.4L686 230.3Z" fill="#0a0a25" stroke="#0a0a25"></path><path d="M570 0L478 0L539 81.9Z" fill="#0a0a25" stroke="#0a0a25"></path><path d="M434 20.9L352 0L398 66.9Z" fill="#0d0d2b" stroke="#0d0d2b"></path><path d="M570 0L539 81.9L582 55.7Z" fill="#0e0f32" stroke="#0e0f32"></path><path d="M478 0L436 0L434 20.9Z" fill="#0e0f32" stroke="#0e0f32"></path><path d="M436 0L435 0L434 20.9Z" fill="#151240" stroke="#151240"></path><path d="M770 275L743 231.3L734 253.3Z" fill="#020317" stroke="#020317"></path><path d="M734 253.3L743 231.3L686 230.3Z" fill="#0d0d2b" stroke="#0d0d2b"></path><path d="M686 446.4L725 398.6L663 391.6Z" fill="#0a0a25" stroke="#0a0a25"></path><path d="M122 261.1L173 312L188 234.1Z" fill="#0e0f32" stroke="#0e0f32"></path><path d="M743 231.3L739 197.4L686 230.3Z" fill="#1a1246" stroke="#1a1246"></path><path d="M286 20.9L260 70.7L284 65.7Z" fill="#0e0f32" stroke="#0e0f32"></path><path d="M284 65.7L260 70.7L316 128.6Z" fill="#020317" stroke="#020317"></path><path d="M204 125.6L206 132.4L256 143.6Z" fill="#271153" stroke="#271153"></path><path d="M197 201.4L169 209.3L188 226.3Z" fill="#1a1246" stroke="#1a1246"></path><path d="M147 191.4L169 209.3L197 201.4Z" fill="#271153" stroke="#271153"></path><path d="M188 226.3L169 209.3L188 234.1Z" fill="#20124d" stroke="#20124d"></path><path d="M619 542.3L563 486.4L531 541.1Z" fill="#1a1246" stroke="#1a1246"></path><path d="M686 446.4L711 451.6L725 398.6Z" fill="#271153" stroke="#271153"></path><path d="M260 70.7L204 125.6L256 143.6Z" fill="#07061e" stroke="#07061e"></path><path d="M206 132.4L147 191.4L197 201.4Z" fill="#2e0f59" stroke="#2e0f59"></path><path d="M686 55.9L670 66.7L729 69.7Z" fill="#0d0d2b" stroke="#0d0d2b"></path><path d="M658 84.7L660 32.9L589 65.9Z" fill="#20124d" stroke="#20124d"></path><path d="M658 84.7L677 141.6L729 69.7Z" fill="#20124d" stroke="#20124d"></path><path d="M572 585.1L619 542.3L531 541.1Z" fill="#07061e" stroke="#07061e"></path><path d="M739 457.6L746 386.7L725 398.6Z" fill="#271153" stroke="#271153"></path><path d="M725 398.6L746 386.7L734 344.9Z" fill="#0e0f32" stroke="#0e0f32"></path><path d="M775 325.9L770 275L710 302Z" fill="#20124d" stroke="#20124d"></path><path d="M240 522.1L303 544.3L303 509.4Z" fill="#0a0a25" stroke="#0a0a25"></path><path d="M303 509.4L303 544.3L326 485.3Z" fill="#0d0d2b" stroke="#0d0d2b"></path><path d="M435 0L352 0L434 20.9Z" fill="#2e0f59" stroke="#2e0f59"></path><path d="M313 47.9L286 20.9L284 65.7Z" fill="#07061e" stroke="#07061e"></path><path d="M597 0L570 0L582 55.7Z" fill="#20124d" stroke="#20124d"></path><path d="M155 379.7L189 429.6L211 410.7Z" fill="#07061e" stroke="#07061e"></path><path d="M211 410.7L189 429.6L255 423.6Z" fill="#151240" stroke="#151240"></path><path d="M155 379.7L211 410.7L187 349.7Z" fill="#151240" stroke="#151240"></path><path d="M743 231.3L751 179.4L739 197.4Z" fill="#0e0f32" stroke="#0e0f32"></path><path d="M739 197.4L751 179.4L711 151.6Z" fill="#151240" stroke="#151240"></path><path d="M811 187.3L751 179.4L743 231.3Z" fill="#1a1246" stroke="#1a1246"></path><path d="M775 325.9L710 302L734 344.9Z" fill="#0d0d2b" stroke="#0d0d2b"></path><path d="M260 70.7L198 116.7L204 125.6Z" fill="#20124d" stroke="#20124d"></path><path d="M204 125.6L198 116.7L206 132.4Z" fill="#07061e" stroke="#07061e"></path><path d="M231 56.7L198 116.7L260 70.7Z" fill="#111139" stroke="#111139"></path><path d="M189 429.6L238 507.4L255 423.6Z" fill="#0d0d2b" stroke="#0d0d2b"></path><path d="M352 0L326 0L332 50.9Z" fill="#2e0f59" stroke="#2e0f59"></path><path d="M425 600L467 600L430 562.1Z" fill="#0e0f32" stroke="#0e0f32"></path><path d="M430 562.1L467 600L501 561.1Z" fill="#0a0a25" stroke="#0a0a25"></path><path d="M531 600L572 585.1L531 541.1Z" fill="#111139" stroke="#111139"></path><path d="M680 546.1L697 493.4L639 474.3Z" fill="#1a1246" stroke="#1a1246"></path><path d="M711 451.6L739 457.6L725 398.6Z" fill="#151240" stroke="#151240"></path><path d="M617 0L582 55.7L589 65.9Z" fill="#0a0a25" stroke="#0a0a25"></path><path d="M326 0L286 20.9L313 47.9Z" fill="#2e0f59" stroke="#2e0f59"></path><path d="M812 397.7L775 325.9L746 386.7Z" fill="#271153" stroke="#271153"></path><path d="M746 386.7L775 325.9L734 344.9Z" fill="#151240" stroke="#151240"></path><path d="M384 600L430 562.1L392 533.1Z" fill="#111139" stroke="#111139"></path><path d="M467 600L502 600L501 561.1Z" fill="#020317" stroke="#020317"></path><path d="M619 542.3L637 551.1L639 474.3Z" fill="#07061e" stroke="#07061e"></path><path d="M618 589.1L637 551.1L619 542.3Z" fill="#2e0f59" stroke="#2e0f59"></path><path d="M143 371.9L155 379.7L187 349.7Z" fill="#271153" stroke="#271153"></path><path d="M233 543.3L240 522.1L193 517.1Z" fill="#151240" stroke="#151240"></path><path d="M143 371.9L187 349.7L173 312Z" fill="#0e0f32" stroke="#0e0f32"></path><path d="M531 600L531 541.1L501 561.1Z" fill="#111139" stroke="#111139"></path><path d="M729 69.7L677 141.6L711 151.6Z" fill="#0a0a25" stroke="#0a0a25"></path><path d="M670 66.7L660 32.9L658 84.7Z" fill="#20124d" stroke="#20124d"></path><path d="M686 55.9L660 32.9L670 66.7Z" fill="#151240" stroke="#151240"></path><path d="M775 325.9L783 296.1L770 275Z" fill="#271153" stroke="#271153"></path><path d="M770 275L801 271.1L743 231.3Z" fill="#0d0d2b" stroke="#0d0d2b"></path><path d="M502 600L531 600L501 561.1Z" fill="#2e0f59" stroke="#2e0f59"></path><path d="M286 20.9L231 56.7L260 70.7Z" fill="#020317" stroke="#020317"></path><path d="M238 507.4L240 522.1L303 509.4Z" fill="#0a0a25" stroke="#0a0a25"></path><path d="M344 600L384 600L392 533.1Z" fill="#020317" stroke="#020317"></path><path d="M240 522.1L238 507.4L193 517.1Z" fill="#07061e" stroke="#07061e"></path><path d="M320 588.1L392 533.1L303 544.3Z" fill="#07061e" stroke="#07061e"></path><path d="M240 522.1L287 559.1L303 544.3Z" fill="#0a0a25" stroke="#0a0a25"></path><path d="M660 32.9L617 0L589 65.9Z" fill="#0a0a25" stroke="#0a0a25"></path><path d="M125 190.3L147 191.4L113 174.4Z" fill="#151240" stroke="#151240"></path><path d="M198 116.7L147 191.4L206 132.4Z" fill="#111139" stroke="#111139"></path><path d="M169 209.3L122 261.1L188 234.1Z" fill="#020317" stroke="#020317"></path><path d="M739 539.3L739 457.6L697 493.4Z" fill="#2e0f59" stroke="#2e0f59"></path><path d="M697 493.4L739 457.6L711 451.6Z" fill="#2e0f59" stroke="#2e0f59"></path><path d="M121 327.9L143 371.9L173 312Z" fill="#0d0d2b" stroke="#0d0d2b"></path><path d="M119 413.6L145 452.4L189 429.6Z" fill="#1a1246" stroke="#1a1246"></path><path d="M792 149.4L749 119.6L751 179.4Z" fill="#1a1246" stroke="#1a1246"></path><path d="M751 179.4L749 119.6L711 151.6Z" fill="#1a1246" stroke="#1a1246"></path><path d="M287 559.1L320 588.1L303 544.3Z" fill="#0e0f32" stroke="#0e0f32"></path><path d="M295 600L320 588.1L287 559.1Z" fill="#111139" stroke="#111139"></path><path d="M254 0L219 51.9L231 56.7Z" fill="#111139" stroke="#111139"></path><path d="M231 56.7L219 51.9L198 116.7Z" fill="#0e0f32" stroke="#0e0f32"></path><path d="M255 0L231 56.7L286 20.9Z" fill="#0d0d2b" stroke="#0d0d2b"></path><path d="M320 588.1L344 600L392 533.1Z" fill="#271153" stroke="#271153"></path><path d="M147 191.4L122 261.1L169 209.3Z" fill="#271153" stroke="#271153"></path><path d="M813 279L801 271.1L783 296.1Z" fill="#271153" stroke="#271153"></path><path d="M783 296.1L801 271.1L770 275Z" fill="#0e0f32" stroke="#0e0f32"></path><path d="M813 279L783 296.1L843 293Z" fill="#111139" stroke="#111139"></path><path d="M640 600L680 546.1L637 551.1Z" fill="#0a0a25" stroke="#0a0a25"></path><path d="M637 551.1L680 546.1L639 474.3Z" fill="#151240" stroke="#151240"></path><path d="M618 589.1L619 542.3L572 585.1Z" fill="#111139" stroke="#111139"></path><path d="M122 261.1L121 327.9L173 312Z" fill="#20124d" stroke="#20124d"></path><path d="M621 600L618 589.1L572 585.1Z" fill="#2e0f59" stroke="#2e0f59"></path><path d="M686 55.9L717 15.9L660 32.9Z" fill="#0a0a25" stroke="#0a0a25"></path><path d="M660 32.9L707 0L617 0Z" fill="#271153" stroke="#271153"></path><path d="M749 119.6L729 69.7L711 151.6Z" fill="#151240" stroke="#151240"></path><path d="M193 517.1L238 507.4L189 429.6Z" fill="#0e0f32" stroke="#0e0f32"></path><path d="M240 522.1L233 543.3L287 559.1Z" fill="#020317" stroke="#020317"></path><path d="M147 191.4L125 190.3L122 261.1Z" fill="#20124d" stroke="#20124d"></path><path d="M113 174.4L147 191.4L198 116.7Z" fill="#2e0f59" stroke="#2e0f59"></path><path d="M751 69.9L736 69.7L749 119.6Z" fill="#1a1246" stroke="#1a1246"></path><path d="M749 119.6L736 69.7L729 69.7Z" fill="#111139" stroke="#111139"></path><path d="M729 69.7L717 15.9L686 55.9Z" fill="#0a0a25" stroke="#0a0a25"></path><path d="M326 0L255 0L286 20.9Z" fill="#0d0d2b" stroke="#0d0d2b"></path><path d="M781 447.4L746 386.7L739 457.6Z" fill="#271153" stroke="#271153"></path><path d="M781 447.4L789 409.7L746 386.7Z" fill="#0d0d2b" stroke="#0d0d2b"></path><path d="M255 0L254 0L231 56.7Z" fill="#2e0f59" stroke="#2e0f59"></path><path d="M92 164.6L113 174.4L107 107.6Z" fill="#0a0a25" stroke="#0a0a25"></path><path d="M843 293L783 296.1L775 325.9Z" fill="#07061e" stroke="#07061e"></path><path d="M811 187.3L792 149.4L751 179.4Z" fill="#0a0a25" stroke="#0a0a25"></path><path d="M618 589.1L640 600L637 551.1Z" fill="#271153" stroke="#271153"></path><path d="M531 600L621 600L572 585.1Z" fill="#0a0a25" stroke="#0a0a25"></path><path d="M158 499.4L193 517.1L189 429.6Z" fill="#271153" stroke="#271153"></path><path d="M189 429.6L155 379.7L119 413.6Z" fill="#111139" stroke="#111139"></path><path d="M250 600L287 559.1L233 543.3Z" fill="#0d0d2b" stroke="#0d0d2b"></path><path d="M250 600L295 600L287 559.1Z" fill="#271153" stroke="#271153"></path><path d="M320 588.1L295 600L344 600Z" fill="#0a0a25" stroke="#0a0a25"></path><path d="M115 392.6L155 379.7L143 371.9Z" fill="#0a0a25" stroke="#0a0a25"></path><path d="M811 187.3L743 231.3L801 271.1Z" fill="#0d0d2b" stroke="#0d0d2b"></path><path d="M784 502.4L781 447.4L739 457.6Z" fill="#111139" stroke="#111139"></path><path d="M808 102.7L751 69.9L749 119.6Z" fill="#0e0f32" stroke="#0e0f32"></path><path d="M736 69.7L717 15.9L729 69.7Z" fill="#111139" stroke="#111139"></path><path d="M108 375.9L115 392.6L143 371.9Z" fill="#020317" stroke="#020317"></path><path d="M108 375.9L143 371.9L121 327.9Z" fill="#271153" stroke="#271153"></path><path d="M108 375.9L84 324L97 379.7Z" fill="#111139" stroke="#111139"></path><path d="M621 600L640 600L618 589.1Z" fill="#20124d" stroke="#20124d"></path><path d="M680 546.1L739 539.3L697 493.4Z" fill="#20124d" stroke="#20124d"></path><path d="M842 183.3L811 187.3L864 243.1Z" fill="#271153" stroke="#271153"></path><path d="M84 324L121 327.9L82 320Z" fill="#07061e" stroke="#07061e"></path><path d="M135 59.7L198 116.7L219 51.9Z" fill="#0a0a25" stroke="#0a0a25"></path><path d="M125 190.3L91 231.1L122 261.1Z" fill="#271153" stroke="#271153"></path><path d="M79 400.7L119 413.6L115 392.6Z" fill="#07061e" stroke="#07061e"></path><path d="M115 392.6L119 413.6L155 379.7Z" fill="#020317" stroke="#020317"></path><path d="M158 499.4L192 534.3L193 517.1Z" fill="#020317" stroke="#020317"></path><path d="M193 517.1L193 536.3L233 543.3Z" fill="#0d0d2b" stroke="#0d0d2b"></path><path d="M193 536.3L133 580.1L156 600Z" fill="#2e0f59" stroke="#2e0f59"></path><path d="M158 499.4L189 429.6L145 452.4Z" fill="#0e0f32" stroke="#0e0f32"></path><path d="M192 534.3L193 536.3L193 517.1Z" fill="#0a0a25" stroke="#0a0a25"></path><path d="M805 449.6L812 397.7L789 409.7Z" fill="#0d0d2b" stroke="#0d0d2b"></path><path d="M789 409.7L812 397.7L746 386.7Z" fill="#20124d" stroke="#20124d"></path><path d="M153 498.3L158 499.4L145 452.4Z" fill="#0d0d2b" stroke="#0d0d2b"></path><path d="M751 69.9L717 15.9L736 69.7Z" fill="#111139" stroke="#111139"></path><path d="M113 174.4L91 231.1L125 190.3Z" fill="#0d0d2b" stroke="#0d0d2b"></path><path d="M96 503.3L153 498.3L145 452.4Z" fill="#0e0f32" stroke="#0e0f32"></path><path d="M158 499.4L133 580.1L192 534.3Z" fill="#07061e" stroke="#07061e"></path><path d="M84 324L108 375.9L121 327.9Z" fill="#2e0f59" stroke="#2e0f59"></path><path d="M108 375.9L97 379.7L115 392.6Z" fill="#20124d" stroke="#20124d"></path><path d="M51 460.4L96 503.3L145 452.4Z" fill="#271153" stroke="#271153"></path><path d="M717 15.9L707 0L660 32.9Z" fill="#20124d" stroke="#20124d"></path><path d="M687 600L739 539.3L680 546.1Z" fill="#151240" stroke="#151240"></path><path d="M781 447.4L805 449.6L789 409.7Z" fill="#020317" stroke="#020317"></path><path d="M82 320L121 327.9L122 261.1Z" fill="#20124d" stroke="#20124d"></path><path d="M156 600L250 600L193 536.3Z" fill="#271153" stroke="#271153"></path><path d="M193 536.3L250 600L233 543.3Z" fill="#0e0f32" stroke="#0e0f32"></path><path d="M792 149.4L808 102.7L749 119.6Z" fill="#020317" stroke="#020317"></path><path d="M735 0L729 0L717 15.9Z" fill="#1a1246" stroke="#1a1246"></path><path d="M717 15.9L729 0L707 0Z" fill="#020317" stroke="#020317"></path><path d="M811 187.3L810 136.6L792 149.4Z" fill="#0a0a25" stroke="#0a0a25"></path><path d="M842 183.3L810 136.6L811 187.3Z" fill="#151240" stroke="#151240"></path><path d="M52 253.3L82 320L122 261.1Z" fill="#0e0f32" stroke="#0e0f32"></path><path d="M84 324L79 400.7L97 379.7Z" fill="#0d0d2b" stroke="#0d0d2b"></path><path d="M797 496.3L805 449.6L781 447.4Z" fill="#20124d" stroke="#20124d"></path><path d="M254 0L188 16.9L219 51.9Z" fill="#111139" stroke="#111139"></path><path d="M838 352.9L775 325.9L812 397.7Z" fill="#271153" stroke="#271153"></path><path d="M838 352.9L843 293L775 325.9Z" fill="#0e0f32" stroke="#0e0f32"></path><path d="M864 243.1L811 187.3L801 271.1Z" fill="#111139" stroke="#111139"></path><path d="M864 347.7L838 352.9L900 400.6Z" fill="#07061e" stroke="#07061e"></path><path d="M107 107.6L113 174.4L198 116.7Z" fill="#1a1246" stroke="#1a1246"></path><path d="M113 174.4L92 164.6L91 231.1Z" fill="#2e0f59" stroke="#2e0f59"></path><path d="M91 231.1L52 253.3L122 261.1Z" fill="#0d0d2b" stroke="#0d0d2b"></path><path d="M640 600L687 600L680 546.1Z" fill="#271153" stroke="#271153"></path><path d="M739 539.3L784 502.4L739 457.6Z" fill="#2e0f59" stroke="#2e0f59"></path><path d="M797 496.3L784 502.4L784 547.1Z" fill="#07061e" stroke="#07061e"></path><path d="M735 0L717 15.9L751 69.9Z" fill="#0a0a25" stroke="#0a0a25"></path><path d="M859 136.4L808 102.7L810 136.6Z" fill="#2e0f59" stroke="#2e0f59"></path><path d="M810 136.6L808 102.7L792 149.4Z" fill="#151240" stroke="#151240"></path><path d="M864 243.1L801 271.1L813 279Z" fill="#020317" stroke="#020317"></path><path d="M135 59.7L107 107.6L198 116.7Z" fill="#07061e" stroke="#07061e"></path><path d="M835 0L735 0L751 69.9Z" fill="#151240" stroke="#151240"></path><path d="M188 16.9L135 59.7L219 51.9Z" fill="#0d0d2b" stroke="#0d0d2b"></path><path d="M784 547.1L784 502.4L739 539.3Z" fill="#1a1246" stroke="#1a1246"></path><path d="M784 502.4L797 496.3L781 447.4Z" fill="#0d0d2b" stroke="#0d0d2b"></path><path d="M900 344.9L864 347.7L900 365.7Z" fill="#111139" stroke="#111139"></path><path d="M97 379.7L79 400.7L115 392.6Z" fill="#020317" stroke="#020317"></path><path d="M34 310.9L79 400.7L84 324Z" fill="#0d0d2b" stroke="#0d0d2b"></path><path d="M843 293L864 243.1L813 279Z" fill="#0d0d2b" stroke="#0d0d2b"></path><path d="M900 284L864 243.1L843 293Z" fill="#0e0f32" stroke="#0e0f32"></path><path d="M864 347.7L900 400.6L900 365.7Z" fill="#020317" stroke="#020317"></path><path d="M838 352.9L864 347.7L843 293Z" fill="#1a1246" stroke="#1a1246"></path><path d="M37 225.3L91 231.1L92 164.6Z" fill="#0a0a25" stroke="#0a0a25"></path><path d="M37 225.3L52 253.3L91 231.1Z" fill="#0a0a25" stroke="#0a0a25"></path><path d="M82 320L34 310.9L84 324Z" fill="#0a0a25" stroke="#0a0a25"></path><path d="M73 134.4L92 164.6L107 107.6Z" fill="#020317" stroke="#020317"></path><path d="M73 134.4L72 151.6L92 164.6Z" fill="#1a1246" stroke="#1a1246"></path><path d="M254 0L159 0L188 16.9Z" fill="#151240" stroke="#151240"></path><path d="M188 16.9L159 0L135 59.7Z" fill="#1a1246" stroke="#1a1246"></path><path d="M32 101.7L73 134.4L107 107.6Z" fill="#020317" stroke="#020317"></path><path d="M88 51.7L107 107.6L135 59.7Z" fill="#07061e" stroke="#07061e"></path><path d="M72 151.6L37 225.3L92 164.6Z" fill="#20124d" stroke="#20124d"></path><path d="M781 553.3L784 547.1L739 539.3Z" fill="#0d0d2b" stroke="#0d0d2b"></path><path d="M838 352.9L812 397.7L900 400.6Z" fill="#2e0f59" stroke="#2e0f59"></path><path d="M159 0L156 0L135 59.7Z" fill="#2e0f59" stroke="#2e0f59"></path><path d="M746 600L781 553.3L739 539.3Z" fill="#2e0f59" stroke="#2e0f59"></path><path d="M51 460.4L119 413.6L79 400.7Z" fill="#0e0f32" stroke="#0e0f32"></path><path d="M51 460.4L145 452.4L119 413.6Z" fill="#0a0a25" stroke="#0a0a25"></path><path d="M133 580.1L193 536.3L192 534.3Z" fill="#151240" stroke="#151240"></path><path d="M842 183.3L859 136.4L810 136.6Z" fill="#271153" stroke="#271153"></path><path d="M808 102.7L844 59.9L751 69.9Z" fill="#0d0d2b" stroke="#0d0d2b"></path><path d="M882 128.6L859 136.4L900 151.6Z" fill="#07061e" stroke="#07061e"></path><path d="M687 600L746 600L739 539.3Z" fill="#2e0f59" stroke="#2e0f59"></path><path d="M156 0L124 23.9L135 59.7Z" fill="#271153" stroke="#271153"></path><path d="M6 280.1L34 310.9L52 253.3Z" fill="#020317" stroke="#020317"></path><path d="M52 253.3L34 310.9L82 320Z" fill="#0d0d2b" stroke="#0d0d2b"></path><path d="M0 205.3L37 225.3L72 151.6Z" fill="#271153" stroke="#271153"></path><path d="M133 580.1L158 499.4L153 498.3Z" fill="#20124d" stroke="#20124d"></path><path d="M124 23.9L88 51.7L135 59.7Z" fill="#1a1246" stroke="#1a1246"></path><path d="M0 205.3L0 279L37 225.3Z" fill="#2e0f59" stroke="#2e0f59"></path><path d="M900 292.1L900 284L843 293Z" fill="#0e0f32" stroke="#0e0f32"></path><path d="M864 243.1L900 223.3L842 183.3Z" fill="#0a0a25" stroke="#0a0a25"></path><path d="M900 292.1L843 293L864 347.7Z" fill="#0a0a25" stroke="#0a0a25"></path><path d="M900 344.9L900 292.1L864 347.7Z" fill="#111139" stroke="#111139"></path><path d="M120 574.1L133 580.1L153 498.3Z" fill="#0d0d2b" stroke="#0d0d2b"></path><path d="M781 553.3L852 600L784 547.1Z" fill="#0e0f32" stroke="#0e0f32"></path><path d="M867 517.1L865 478.3L797 496.3Z" fill="#0a0a25" stroke="#0a0a25"></path><path d="M746 600L782 589.1L781 553.3Z" fill="#111139" stroke="#111139"></path><path d="M812 397.7L805 449.6L882 460.6Z" fill="#0d0d2b" stroke="#0d0d2b"></path><path d="M900 284L900 223.3L864 243.1Z" fill="#271153" stroke="#271153"></path><path d="M887 108.7L844 59.9L859 136.4Z" fill="#07061e" stroke="#07061e"></path><path d="M859 136.4L844 59.9L808 102.7Z" fill="#0e0f32" stroke="#0e0f32"></path><path d="M0 390.6L51 460.4L79 400.7Z" fill="#271153" stroke="#271153"></path><path d="M96 503.3L120 574.1L153 498.3Z" fill="#0e0f32" stroke="#0e0f32"></path><path d="M115 600L120 574.1L103 600Z" fill="#111139" stroke="#111139"></path><path d="M133 580.1L115 600L156 600Z" fill="#020317" stroke="#020317"></path><path d="M865 478.3L805 449.6L797 496.3Z" fill="#07061e" stroke="#07061e"></path><path d="M44 470.4L51 466.6L51 460.4Z" fill="#111139" stroke="#111139"></path><path d="M51 460.4L51 466.6L96 503.3Z" fill="#151240" stroke="#151240"></path><path d="M867 517.1L797 496.3L784 547.1Z" fill="#111139" stroke="#111139"></path><path d="M900 178.4L859 136.4L842 183.3Z" fill="#111139" stroke="#111139"></path><path d="M746 600L781 600L782 589.1Z" fill="#111139" stroke="#111139"></path><path d="M867 517.1L877 474.4L865 478.3Z" fill="#1a1246" stroke="#1a1246"></path><path d="M156 0L101 10.9L124 23.9Z" fill="#07061e" stroke="#07061e"></path><path d="M124 23.9L101 10.9L88 51.7Z" fill="#0d0d2b" stroke="#0d0d2b"></path><path d="M900 223.3L900 178.4L842 183.3Z" fill="#0e0f32" stroke="#0e0f32"></path><path d="M0 279L6 280.1L37 225.3Z" fill="#20124d" stroke="#20124d"></path><path d="M37 225.3L6 280.1L52 253.3Z" fill="#20124d" stroke="#20124d"></path><path d="M27 481.3L44 470.4L51 460.4Z" fill="#07061e" stroke="#07061e"></path><path d="M72 151.6L73 134.4L0 151.4Z" fill="#151240" stroke="#151240"></path><path d="M882 460.6L900 400.6L812 397.7Z" fill="#1a1246" stroke="#1a1246"></path><path d="M0 378.7L79 400.7L34 310.9Z" fill="#0e0f32" stroke="#0e0f32"></path><path d="M51 466.6L44 470.4L96 503.3Z" fill="#07061e" stroke="#07061e"></path><path d="M877 474.4L882 460.6L865 478.3Z" fill="#07061e" stroke="#07061e"></path><path d="M865 478.3L882 460.6L805 449.6Z" fill="#1a1246" stroke="#1a1246"></path><path d="M867 517.1L784 547.1L852 600Z" fill="#111139" stroke="#111139"></path><path d="M900 178.4L900 151.6L859 136.4Z" fill="#151240" stroke="#151240"></path><path d="M882 128.6L887 108.7L859 136.4Z" fill="#151240" stroke="#151240"></path><path d="M32 101.7L107 107.6L88 51.7Z" fill="#111139" stroke="#111139"></path><path d="M6 280.1L0 295.1L34 310.9Z" fill="#271153" stroke="#271153"></path><path d="M0 279L0 295.1L6 280.1Z" fill="#2e0f59" stroke="#2e0f59"></path><path d="M0 295.1L0 313.9L34 310.9Z" fill="#20124d" stroke="#20124d"></path><path d="M900 151.6L887 108.7L882 128.6Z" fill="#1a1246" stroke="#1a1246"></path><path d="M101 10.9L74 28.9L88 51.7Z" fill="#0e0f32" stroke="#0e0f32"></path><path d="M74 28.9L32 101.7L88 51.7Z" fill="#2e0f59" stroke="#2e0f59"></path><path d="M0 151.4L0 205.3L72 151.6Z" fill="#1a1246" stroke="#1a1246"></path><path d="M103 600L120 574.1L41 584.1Z" fill="#271153" stroke="#271153"></path><path d="M120 574.1L115 600L133 580.1Z" fill="#151240" stroke="#151240"></path><path d="M852 600L781 553.3L782 589.1Z" fill="#0e0f32" stroke="#0e0f32"></path><path d="M877 474.4L900 484.4L882 460.6Z" fill="#07061e" stroke="#07061e"></path><path d="M882 460.6L900 484.4L900 400.6Z" fill="#0a0a25" stroke="#0a0a25"></path><path d="M0 313.9L0 378.7L34 310.9Z" fill="#111139" stroke="#111139"></path><path d="M848 0L835 0L844 59.9Z" fill="#0e0f32" stroke="#0e0f32"></path><path d="M844 59.9L835 0L751 69.9Z" fill="#271153" stroke="#271153"></path><path d="M0 378.7L0 390.6L79 400.7Z" fill="#0a0a25" stroke="#0a0a25"></path><path d="M44 470.4L27 481.3L96 503.3Z" fill="#1a1246" stroke="#1a1246"></path><path d="M0 390.6L27 481.3L51 460.4Z" fill="#151240" stroke="#151240"></path><path d="M41 584.1L120 574.1L96 503.3Z" fill="#020317" stroke="#020317"></path><path d="M0 101.6L0 101.7L32 101.7Z" fill="#0e0f32" stroke="#0e0f32"></path><path d="M101 10.9L75 0L74 28.9Z" fill="#151240" stroke="#151240"></path><path d="M156 0L75 0L101 10.9Z" fill="#151240" stroke="#151240"></path><path d="M0 101.7L0 151.4L32 101.7Z" fill="#0e0f32" stroke="#0e0f32"></path><path d="M32 101.7L0 151.4L73 134.4Z" fill="#0d0d2b" stroke="#0d0d2b"></path><path d="M893 50.9L848 0L844 59.9Z" fill="#07061e" stroke="#07061e"></path><path d="M867 517.1L900 484.4L877 474.4Z" fill="#0e0f32" stroke="#0e0f32"></path><path d="M75 0L65 0L74 28.9Z" fill="#151240" stroke="#151240"></path><path d="M900 151.6L900 68.7L887 108.7Z" fill="#0e0f32" stroke="#0e0f32"></path><path d="M887 108.7L900 68.7L844 59.9Z" fill="#020317" stroke="#020317"></path><path d="M900 68.7L893 50.9L844 59.9Z" fill="#07061e" stroke="#07061e"></path><path d="M900 68.7L900 60.9L893 50.9Z" fill="#151240" stroke="#151240"></path><path d="M0 101.6L32 101.7L0 48.9Z" fill="#1a1246" stroke="#1a1246"></path><path d="M0 48.9L32 101.7L74 28.9Z" fill="#0d0d2b" stroke="#0d0d2b"></path><path d="M781 600L852 600L782 589.1Z" fill="#2e0f59" stroke="#2e0f59"></path><path d="M867 517.1L900 543.3L900 484.4Z" fill="#2e0f59" stroke="#2e0f59"></path><path d="M0 390.6L0 502.3L27 481.3Z" fill="#20124d" stroke="#20124d"></path><path d="M27 481.3L0 540.1L96 503.3Z" fill="#0d0d2b" stroke="#0d0d2b"></path><path d="M900 568.1L900 543.3L867 517.1Z" fill="#20124d" stroke="#20124d"></path><path d="M0 502.3L0 508.4L27 481.3Z" fill="#0a0a25" stroke="#0a0a25"></path><path d="M0 540.1L41 584.1L96 503.3Z" fill="#151240" stroke="#151240"></path><path d="M65 0L0 48.9L74 28.9Z" fill="#151240" stroke="#151240"></path><path d="M852 600L900 568.1L867 517.1Z" fill="#20124d" stroke="#20124d"></path><path d="M900 60.9L900 0L893 50.9Z" fill="#0d0d2b" stroke="#0d0d2b"></path><path d="M893 50.9L900 0L848 0Z" fill="#20124d" stroke="#20124d"></path><path d="M0 600L42 600L41 584.1Z" fill="#0e0f32" stroke="#0e0f32"></path><path d="M41 584.1L42 600L103 600Z" fill="#0e0f32" stroke="#0e0f32"></path><path d="M0 508.4L0 540.1L27 481.3Z" fill="#1a1246" stroke="#1a1246"></path><path d="M852 600L900 600L900 568.1Z" fill="#0a0a25" stroke="#0a0a25"></path><path d="M65 0L0 0L0 48.9Z" fill="#20124d" stroke="#20124d"></path><path d="M0 540.1L0 600L41 584.1Z" fill="#2e0f59" stroke="#2e0f59"></path></g></svg>