<svg id="visual" viewBox="0 0 1920 300" width="1920" height="300" xmlns="http://www.w3.org/2000/svg" xmlns:xlink="http://www.w3.org/1999/xlink" version="1.1"><path d="M0 159L29.2 167.7C58.3 176.3 116.7 193.7 174.8 204.3C233 215 291 219 349.2 211.2C407.3 203.3 465.7 183.7 523.8 184C582 184.3 640 204.7 698.2 211.5C756.3 218.3 814.7 211.7 872.8 206.5C931 201.3 989 197.7 1047.2 196.7C1105.3 195.7 1163.7 197.3 1221.8 201.7C1280 206 1338 213 1396.2 209.5C1454.3 206 1512.7 192 1570.8 183C1629 174 1687 170 1745.2 174C1803.3 178 1861.7 190 1890.8 196L1920 202L1920 0L1890.8 0C1861.7 0 1803.3 0 1745.2 0C1687 0 1629 0 1570.8 0C1512.7 0 1454.3 0 1396.2 0C1338 0 1280 0 1221.8 0C1163.7 0 1105.3 0 1047.2 0C989 0 931 0 872.8 0C814.7 0 756.3 0 698.2 0C640 0 582 0 523.8 0C465.7 0 407.3 0 349.2 0C291 0 233 0 174.8 0C116.7 0 58.3 0 29.2 0L0 0Z" fill="#100024"></path><path d="M0 197L29.2 190.3C58.3 183.7 116.7 170.3 174.8 173C233 175.7 291 194.3 349.2 202.2C407.3 210 465.7 207 523.8 207.8C582 208.7 640 213.3 698.2 214.8C756.3 216.3 814.7 214.7 872.8 212.7C931 210.7 989 208.3 1047.2 204.5C1105.3 200.7 1163.7 195.3 1221.8 192.5C1280 189.7 1338 189.3 1396.2 188.5C1454.3 187.7 1512.7 186.3 1570.8 184.7C1629 183 1687 181 1745.2 184.2C1803.3 187.3 1861.7 195.7 1890.8 199.8L1920 204L1920 0L1890.8 0C1861.7 0 1803.3 0 1745.2 0C1687 0 1629 0 1570.8 0C1512.7 0 1454.3 0 1396.2 0C1338 0 1280 0 1221.8 0C1163.7 0 1105.3 0 1047.2 0C989 0 931 0 872.8 0C814.7 0 756.3 0 698.2 0C640 0 582 0 523.8 0C465.7 0 407.3 0 349.2 0C291 0 233 0 174.8 0C116.7 0 58.3 0 29.2 0L0 0Z" fill="#1b0f42"></path><path d="M0 144L29.2 149C58.3 154 116.7 164 174.8 161C233 158 291 142 349.2 143.2C407.3 144.3 465.7 162.7 523.8 163C582 163.3 640 145.7 698.2 140C756.3 134.3 814.7 140.7 872.8 150.2C931 159.7 989 172.3 1047.2 168.7C1105.3 165 1163.7 145 1221.8 144C1280 143 1338 161 1396.2 162C1454.3 163 1512.7 147 1570.8 141.3C1629 135.7 1687 140.3 1745.2 141.5C1803.3 142.7 1861.7 140.3 1890.8 139.2L1920 138L1920 0L1890.8 0C1861.7 0 1803.3 0 1745.2 0C1687 0 1629 0 1570.8 0C1512.7 0 1454.3 0 1396.2 0C1338 0 1280 0 1221.8 0C1163.7 0 1105.3 0 1047.2 0C989 0 931 0 872.8 0C814.7 0 756.3 0 698.2 0C640 0 582 0 523.8 0C465.7 0 407.3 0 349.2 0C291 0 233 0 174.8 0C116.7 0 58.3 0 29.2 0L0 0Z" fill="#2c1563"></path><path d="M0 122L29.2 118.2C58.3 114.3 116.7 106.7 174.8 110.2C233 113.7 291 128.3 349.2 132.3C407.3 136.3 465.7 129.7 523.8 125.3C582 121 640 119 698.2 118C756.3 117 814.7 117 872.8 121.5C931 126 989 135 1047.2 139.7C1105.3 144.3 1163.7 144.7 1221.8 144C1280 143.3 1338 141.7 1396.2 141.2C1454.3 140.7 1512.7 141.3 1570.8 143.5C1629 145.7 1687 149.3 1745.2 145.3C1803.3 141.3 1861.7 129.7 1890.8 123.8L1920 118L1920 0L1890.8 0C1861.7 0 1803.3 0 1745.2 0C1687 0 1629 0 1570.8 0C1512.7 0 1454.3 0 1396.2 0C1338 0 1280 0 1221.8 0C1163.7 0 1105.3 0 1047.2 0C989 0 931 0 872.8 0C814.7 0 756.3 0 698.2 0C640 0 582 0 523.8 0C465.7 0 407.3 0 349.2 0C291 0 233 0 174.8 0C116.7 0 58.3 0 29.2 0L0 0Z" fill="#411a84"></path><path d="M0 100L29.2 102.3C58.3 104.7 116.7 109.3 174.8 111.5C233 113.7 291 113.3 349.2 109.5C407.3 105.7 465.7 98.3 523.8 92.8C582 87.3 640 83.7 698.2 88.5C756.3 93.3 814.7 106.7 872.8 107.7C931 108.7 989 97.3 1047.2 92.7C1105.3 88 1163.7 90 1221.8 87.2C1280 84.3 1338 76.7 1396.2 78.2C1454.3 79.7 1512.7 90.3 1570.8 95.3C1629 100.3 1687 99.7 1745.2 96.5C1803.3 93.3 1861.7 87.7 1890.8 84.8L1920 82L1920 0L1890.8 0C1861.7 0 1803.3 0 1745.2 0C1687 0 1629 0 1570.8 0C1512.7 0 1454.3 0 1396.2 0C1338 0 1280 0 1221.8 0C1163.7 0 1105.3 0 1047.2 0C989 0 931 0 872.8 0C814.7 0 756.3 0 698.2 0C640 0 582 0 523.8 0C465.7 0 407.3 0 349.2 0C291 0 233 0 174.8 0C116.7 0 58.3 0 29.2 0L0 0Z" fill="#591ca6"></path><path d="M0 65L29.2 67.3C58.3 69.7 116.7 74.3 174.8 72.7C233 71 291 63 349.2 59.7C407.3 56.3 465.7 57.7 523.8 57.8C582 58 640 57 698.2 59.3C756.3 61.7 814.7 67.3 872.8 70C931 72.7 989 72.3 1047.2 74.7C1105.3 77 1163.7 82 1221.8 79.7C1280 77.3 1338 67.7 1396.2 60.3C1454.3 53 1512.7 48 1570.8 48.8C1629 49.7 1687 56.3 1745.2 57.5C1803.3 58.7 1861.7 54.3 1890.8 52.2L1920 50L1920 0L1890.8 0C1861.7 0 1803.3 0 1745.2 0C1687 0 1629 0 1570.8 0C1512.7 0 1454.3 0 1396.2 0C1338 0 1280 0 1221.8 0C1163.7 0 1105.3 0 1047.2 0C989 0 931 0 872.8 0C814.7 0 756.3 0 698.2 0C640 0 582 0 523.8 0C465.7 0 407.3 0 349.2 0C291 0 233 0 174.8 0C116.7 0 58.3 0 29.2 0L0 0Z" fill="#751ac7"></path><path d="M0 49L29.2 48.3C58.3 47.7 116.7 46.3 174.8 41.2C233 36 291 27 349.2 25.3C407.3 23.7 465.7 29.3 523.8 32.8C582 36.3 640 37.7 698.2 37.3C756.3 37 814.7 35 872.8 33.7C931 32.3 989 31.7 1047.2 34.3C1105.3 37 1163.7 43 1221.8 41.8C1280 40.7 1338 32.3 1396.2 32.7C1454.3 33 1512.7 42 1570.8 44.8C1629 47.7 1687 44.3 1745.2 42.5C1803.3 40.7 1861.7 40.3 1890.8 40.2L1920 40L1920 0L1890.8 0C1861.7 0 1803.3 0 1745.2 0C1687 0 1629 0 1570.8 0C1512.7 0 1454.3 0 1396.2 0C1338 0 1280 0 1221.8 0C1163.7 0 1105.3 0 1047.2 0C989 0 931 0 872.8 0C814.7 0 756.3 0 698.2 0C640 0 582 0 523.8 0C465.7 0 407.3 0 349.2 0C291 0 233 0 174.8 0C116.7 0 58.3 0 29.2 0L0 0Z" fill="#930fe9"></path></svg>